<?xml version="1.0" standalone="no"?>
<!DOCTYPE svg PUBLIC "-//W3C//DTD SVG 20010904//EN"
 "http://www.w3.org/TR/2001/REC-SVG-20010904/DTD/svg10.dtd">
<svg version="1.0" xmlns="http://www.w3.org/2000/svg"
 width="500.000000pt" height="500.000000pt" viewBox="0 0 500.000000 500.000000"
 preserveAspectRatio="xMidYMid meet">

<g transform="translate(0.000000,500.000000) scale(0.100000,-0.100000)"
fill="#000000" stroke="none">
<path d="M1907 3630 c-4 -14 -6 -38 -6 -55 l1 -30 9 34 c6 18 9 43 7 55 -3 20
-4 19 -11 -4z"/>
<path d="M1846 3559 c-12 -68 16 -146 72 -206 29 -31 35 -36 18 -13 -52 70
-70 113 -76 190 l-6 75 -8 -46z"/>
<path d="M3954 3402 c3 -59 10 -90 29 -128 13 -27 36 -77 51 -111 14 -35 37
-87 51 -117 35 -77 71 -233 84 -367 7 -63 13 -127 15 -144 7 -53 -13 -251 -34
-352 -30 -141 -85 -302 -143 -422 -42 -87 -51 -115 -53 -168 -2 -35 -5 -67 -8
-71 -2 -4 3 -8 12 -9 38 -2 192 286 251 469 53 167 75 319 74 518 0 270 -48
485 -159 719 -46 98 -149 261 -164 261 -5 0 -7 -35 -6 -78z"/>
<path d="M1067 3369 c-238 -366 -321 -819 -231 -1259 43 -207 151 -458 263
-609 22 -29 26 -31 32 -15 3 11 2 28 -4 39 -7 13 -7 20 0 22 6 2 -14 48 -44
102 -108 198 -170 383 -198 598 -19 142 -19 226 0 423 15 163 28 230 70 370
15 47 29 96 31 110 3 14 31 72 62 130 78 147 85 161 79 167 -3 3 -30 -32 -60
-78z"/>
<path d="M1888 3114 c-16 -8 -28 -19 -28 -24 0 -14 18 -12 22 2 2 6 20 17 39
24 22 8 27 13 14 13 -11 0 -32 -7 -47 -15z"/>
<path d="M3143 2913 c15 -2 37 -2 50 0 12 2 0 4 -28 4 -27 0 -38 -2 -22 -4z"/>
</g>
</svg>
